<?xml version="1.0" encoding="UTF-8"?>
<svg xmlns="http://www.w3.org/2000/svg" id="Layer_1" viewBox="0 0 100 100"><path d="M34.14,58.4c-2.3,0-4.17-1.87-4.17-4.17s1.87-4.17,4.17-4.17,4.17,1.87,4.17,4.17-1.87,4.17-4.17,4.17Zm0-6.35c-1.2,0-2.17,.97-2.17,2.17s.97,2.17,2.17,2.17,2.17-.97,2.17-2.17-.97-2.17-2.17-2.17Z"/><path d="M46.83,47.83c-2.3,0-4.17-1.87-4.17-4.17s1.87-4.17,4.17-4.17,4.17,1.87,4.17,4.17-1.87,4.17-4.17,4.17Zm0-6.35c-1.2,0-2.17,.97-2.17,2.17s.97,2.17,2.17,2.17,2.17-.97,2.17-2.17-.97-2.17-2.17-2.17Z"/><path d="M59.52,52.06c-2.3,0-4.17-1.87-4.17-4.17s1.87-4.17,4.17-4.17,4.17,1.87,4.17,4.17-1.87,4.17-4.17,4.17Zm0-6.35c-1.2,0-2.17,.97-2.17,2.17s.97,2.17,2.17,2.17,2.17-.97,2.17-2.17-.97-2.17-2.17-2.17Z"/><path d="M72.21,41.48c-2.3,0-4.17-1.87-4.17-4.17s1.87-4.17,4.17-4.17,4.17,1.87,4.17,4.17-1.87,4.17-4.17,4.17Zm0-6.35c-1.2,0-2.17,.97-2.17,2.17s.97,2.17,2.17,2.17,2.17-.97,2.17-2.17-.97-2.17-2.17-2.17Z"/><path d="M61.95,46.86c-.29,0-.57-.12-.77-.36-.35-.42-.3-1.05,.13-1.41l7.84-6.53c.43-.35,1.06-.3,1.41,.13s.3,1.05-.13,1.41l-7.84,6.53c-.19,.16-.41,.23-.64,.23Z"/><path d="M56.52,47.89c-.1,0-.21-.02-.32-.05l-6.7-2.23c-.52-.17-.81-.74-.63-1.27,.17-.52,.74-.81,1.26-.63l6.7,2.23c.52,.17,.81,.74,.63,1.27-.14,.42-.53,.68-.95,.68Z"/><path d="M36.57,53.21c-.29,0-.57-.12-.77-.36-.35-.42-.3-1.05,.13-1.41l7.84-6.53c.43-.35,1.06-.3,1.41,.13,.35,.42,.3,1.05-.13,1.41l-7.84,6.53c-.19,.16-.41,.23-.64,.23Z"/><path d="M75.44,73.21h-6.46c-1.1,0-2-.9-2-2v-23.38c0-1.1,.9-2,2-2h6.46c1.1,0,2,.9,2,2v23.38c0,1.1-.9,2-2,2Zm-6.46-25.38v23.38h6.46v-23.38h-6.46Z"/><path d="M62.75,73.21h-6.46c-1.1,0-2-.9-2-2v-12.81c0-1.1,.9-2,2-2h6.46c1.1,0,2,.9,2,2v12.81c0,1.1-.9,2-2,2Zm-6.46-14.81v12.81h6.46v-12.81h-6.46Z"/><path d="M50.06,73.21h-6.46c-1.1,0-2-.9-2-2v-17.04c0-1.1,.9-2,2-2h6.46c1.1,0,2,.9,2,2v17.04c0,1.1-.9,2-2,2Zm-6.46-19.04v17.04h6.46v-17.04h-6.46Z"/><path d="M37.37,73.21h-6.46c-1.1,0-2-.9-2-2v-6.46c0-1.1,.9-2,2-2h6.46c1.1,0,2,.9,2,2v6.46c0,1.1-.9,2-2,2Zm-6.46-8.46v6.46h6.46v-6.46h-6.46Z"/><path d="M55.29,28.8c-.26,0-.52-.11-.71-.3-.09-.09-.16-.2-.21-.32-.05-.12-.08-.25-.08-.38,0-.14,.03-.27,.08-.39,.05-.12,.12-.23,.21-.32,.1-.09,.21-.17,.33-.22,.18-.07,.38-.09,.58-.05,.06,.01,.12,.03,.18,.05l.18,.09c.05,.04,.1,.08,.15,.13,.09,.09,.16,.2,.22,.32,.05,.13,.07,.25,.07,.39,0,.26-.11,.52-.29,.7-.05,.05-.1,.09-.15,.13-.06,.03-.12,.06-.18,.09-.06,.02-.12,.04-.18,.06-.07,.01-.13,.02-.2,.02Z"/><path d="M55.29,33.03c-.13,0-.26-.03-.38-.08-.12-.05-.23-.12-.33-.22-.09-.09-.16-.2-.21-.32-.05-.12-.08-.25-.08-.38,0-.14,.03-.26,.08-.39,.05-.12,.12-.23,.21-.32,.24-.23,.58-.34,.91-.28,.06,.02,.12,.04,.18,.06l.18,.09c.05,.04,.1,.08,.15,.13,.09,.09,.16,.2,.22,.32,.05,.13,.07,.26,.07,.39,0,.26-.11,.52-.29,.7-.05,.05-.1,.09-.15,.13-.06,.03-.12,.06-.18,.09-.06,.02-.12,.04-.18,.06-.07,.01-.13,.02-.2,.02Z"/><path d="M59.52,28.79c-.13,0-.26-.02-.38-.07-.12-.05-.23-.12-.32-.22-.1-.09-.17-.2-.22-.32-.05-.12-.08-.25-.08-.38,0-.14,.03-.26,.08-.39,.05-.12,.12-.23,.22-.32,.09-.1,.2-.17,.32-.22,.18-.07,.38-.1,.58-.05,.06,.01,.12,.03,.18,.05,.07,.03,.12,.06,.18,.09,.05,.04,.1,.08,.15,.13,.19,.18,.29,.44,.29,.71s-.1,.52-.29,.7c-.05,.05-.1,.09-.15,.13-.06,.03-.11,.06-.18,.09-.06,.02-.12,.04-.18,.06-.07,.01-.13,.01-.2,.01Z"/><path d="M59.52,33.03c-.13,0-.26-.03-.38-.08-.12-.05-.23-.12-.32-.22-.1-.09-.17-.2-.22-.32-.05-.12-.08-.25-.08-.38,0-.27,.11-.52,.3-.71,.09-.09,.2-.17,.32-.22,.18-.07,.38-.09,.58-.05,.06,.01,.12,.03,.18,.05,.07,.03,.12,.06,.18,.09,.05,.04,.1,.08,.15,.13,.19,.19,.29,.44,.29,.71s-.1,.52-.29,.7c-.05,.05-.1,.09-.15,.13-.06,.03-.11,.06-.18,.09-.06,.02-.12,.04-.18,.06-.07,.01-.13,.02-.2,.02Z"/><path d="M63.75,33.03c-.26,0-.52-.11-.7-.3-.1-.09-.17-.2-.22-.32-.05-.12-.08-.25-.08-.38,0-.14,.03-.26,.08-.39,.05-.12,.12-.23,.22-.32,.23-.23,.58-.34,.9-.27,.06,.01,.12,.03,.19,.05,.06,.03,.11,.06,.17,.09,.05,.04,.1,.08,.15,.13,.19,.19,.29,.44,.29,.71,0,.13-.02,.26-.07,.38-.06,.12-.13,.23-.22,.32-.05,.05-.1,.09-.15,.13-.06,.03-.11,.06-.17,.09-.07,.02-.13,.04-.19,.06-.07,.01-.13,.02-.2,.02Z"/><path d="M55.29,37.26c-.26,0-.52-.11-.71-.3-.09-.09-.16-.2-.21-.32-.05-.12-.08-.25-.08-.38,0-.27,.11-.53,.29-.71,.24-.23,.58-.34,.91-.27,.06,.01,.12,.03,.18,.05,.06,.03,.12,.06,.18,.1,.05,.03,.1,.07,.15,.12,.04,.05,.09,.1,.12,.15,.04,.06,.07,.11,.1,.17,.02,.06,.04,.13,.05,.19,.02,.07,.02,.13,.02,.2,0,.26-.11,.52-.29,.7-.05,.05-.1,.09-.15,.13-.06,.03-.12,.06-.18,.09-.06,.02-.12,.04-.18,.06-.07,0-.13,.02-.2,.02Z"/><path d="M51.06,28.8c-.13,0-.26-.03-.38-.08-.12-.05-.23-.12-.33-.22-.18-.18-.29-.44-.29-.7,0-.07,.01-.14,.02-.2s.03-.13,.06-.19c.02-.06,.05-.12,.09-.17,.04-.05,.08-.11,.12-.15,.1-.09,.21-.17,.33-.22,.18-.07,.38-.1,.58-.06,.06,.02,.12,.04,.18,.06,.06,.03,.12,.06,.18,.09,.05,.04,.1,.08,.15,.13,.04,.04,.09,.1,.12,.15,.04,.05,.07,.11,.09,.17,.03,.06,.05,.13,.06,.19,.02,.06,.02,.13,.02,.2,0,.26-.11,.52-.29,.7-.05,.05-.1,.09-.15,.13-.06,.03-.12,.06-.18,.09-.06,.02-.12,.04-.18,.06-.07,.01-.13,.02-.2,.02Z"/><path d="M51.06,33.03c-.13,0-.26-.03-.38-.08-.12-.05-.23-.12-.33-.22-.18-.18-.29-.44-.29-.7,0-.14,.03-.26,.08-.39,.05-.12,.12-.23,.21-.32,.1-.1,.21-.17,.33-.22,.18-.07,.38-.1,.58-.05,.06,.01,.12,.03,.18,.05,.06,.03,.12,.06,.18,.09,.05,.04,.1,.08,.15,.13,.09,.09,.16,.2,.21,.32,.06,.13,.08,.25,.08,.39,0,.26-.11,.52-.29,.7-.05,.05-.1,.09-.15,.13-.06,.03-.12,.06-.18,.09-.06,.02-.12,.04-.18,.06-.07,.01-.13,.02-.2,.02Z"/><path d="M51.06,37.26c-.13,0-.26-.03-.38-.08-.12-.05-.23-.12-.33-.22-.04-.04-.08-.09-.12-.15-.04-.05-.07-.11-.09-.17-.03-.06-.05-.13-.06-.19,0-.06-.02-.13-.02-.19,0-.27,.11-.52,.29-.71,.1-.09,.21-.17,.33-.22,.18-.07,.38-.09,.58-.05,.06,.01,.12,.03,.18,.05,.06,.03,.12,.06,.18,.1,.05,.03,.1,.07,.15,.12,.18,.19,.29,.44,.29,.71,0,.06,0,.13-.02,.19,0,.06-.03,.13-.06,.19-.02,.06-.05,.12-.09,.17-.03,.06-.08,.11-.12,.15-.05,.05-.1,.09-.15,.13-.06,.03-.12,.06-.18,.09-.06,.02-.12,.04-.18,.06-.07,0-.13,.02-.2,.02Z"/><path d="M59.52,37.26c-.26,0-.52-.11-.7-.3-.1-.09-.17-.2-.22-.32-.05-.12-.08-.25-.08-.38,0-.27,.11-.52,.3-.71,.09-.09,.2-.17,.32-.22,.18-.07,.38-.09,.58-.05,.06,.01,.12,.03,.18,.05,.07,.03,.12,.06,.18,.1,.05,.03,.1,.07,.15,.12,.19,.19,.29,.44,.29,.71s-.1,.52-.29,.7c-.05,.05-.1,.09-.15,.13-.06,.03-.11,.06-.18,.09-.06,.02-.12,.04-.18,.06-.07,0-.13,.02-.2,.02Z"/><path d="M63.75,37.26c-.26,0-.52-.11-.7-.3-.19-.18-.3-.44-.3-.7,0-.13,.03-.26,.08-.39,.05-.12,.12-.23,.22-.32,.37-.37,1.04-.37,1.41,0,.19,.19,.29,.44,.29,.71s-.1,.52-.29,.7c-.05,.05-.1,.09-.15,.13-.06,.03-.11,.06-.17,.09-.07,.02-.13,.04-.19,.06-.07,0-.13,.02-.2,.02Z"/><path d="M63.75,28.8c-.26,0-.52-.11-.7-.3-.1-.09-.17-.2-.22-.32-.05-.12-.08-.25-.08-.38,0-.14,.03-.27,.08-.39,.05-.12,.12-.23,.22-.32,.23-.23,.58-.34,.9-.28,.06,.02,.12,.04,.19,.06,.06,.03,.11,.06,.17,.09,.05,.04,.1,.08,.15,.13,.09,.09,.16,.2,.22,.32,.05,.13,.07,.25,.07,.39,0,.26-.1,.52-.29,.7-.19,.19-.44,.3-.71,.3Z"/><path d="M23.56,53.12c-.06,0-.13-.01-.19-.02-.07-.01-.13-.03-.19-.06-.06-.02-.12-.05-.17-.09-.06-.03-.11-.08-.15-.12-.19-.19-.3-.45-.3-.71s.11-.52,.3-.71c.04-.04,.09-.08,.15-.12,.05-.04,.11-.07,.17-.09,.06-.03,.12-.05,.19-.06,.13-.03,.26-.03,.39,0,.06,0,.13,.03,.19,.06,.06,.02,.11,.05,.17,.09l.15,.12c.09,.09,.16,.2,.22,.33,.05,.12,.07,.25,.07,.38,0,.27-.11,.52-.29,.71-.05,.04-.1,.09-.15,.12-.06,.04-.11,.07-.17,.09-.06,.03-.13,.05-.19,.06-.07,0-.13,.02-.2,.02Z"/><path d="M23.56,48.89c-.06,0-.13-.01-.19-.02-.07-.01-.13-.03-.19-.06-.06-.02-.12-.05-.17-.09-.06-.04-.11-.08-.15-.12-.19-.19-.3-.45-.3-.71,0-.13,.03-.26,.08-.38,.05-.12,.12-.23,.22-.33,.36-.37,1.04-.37,1.41,0,.09,.1,.16,.21,.22,.33,.05,.12,.07,.25,.07,.38,0,.27-.11,.52-.29,.71l-.15,.12c-.06,.04-.11,.07-.17,.09-.06,.03-.13,.05-.19,.06-.07,0-.13,.02-.2,.02Z"/><path d="M23.56,57.35c-.13,0-.26-.02-.38-.07-.12-.06-.23-.13-.32-.22-.19-.19-.3-.44-.3-.71s.11-.52,.3-.71c.04-.04,.09-.08,.15-.12,.05-.04,.11-.07,.17-.09,.06-.03,.12-.05,.19-.06,.13-.03,.26-.03,.39,0,.06,0,.13,.03,.19,.06,.06,.02,.11,.05,.17,.09l.15,.12c.18,.19,.29,.45,.29,.71s-.1,.52-.29,.71c-.09,.09-.2,.16-.32,.22-.12,.05-.25,.07-.39,.07Z"/><path d="M23.56,61.58c-.13,0-.26-.02-.38-.07-.12-.06-.23-.13-.32-.22-.1-.1-.17-.21-.22-.33-.05-.12-.08-.25-.08-.38,0-.26,.11-.52,.3-.71,.04-.04,.09-.08,.15-.12,.05-.04,.11-.07,.17-.09,.06-.03,.12-.05,.19-.06,.13-.03,.26-.03,.39,0,.06,0,.13,.03,.19,.06,.06,.02,.11,.05,.17,.09l.15,.12c.18,.19,.29,.45,.29,.71s-.1,.52-.29,.71c-.09,.09-.2,.16-.32,.22-.12,.05-.25,.07-.39,.07Z"/><path d="M23.56,65.81c-.13,0-.26-.02-.38-.07s-.23-.13-.32-.22c-.19-.19-.3-.44-.3-.71,0-.13,.03-.26,.08-.38,.05-.12,.12-.23,.22-.32,.36-.38,1.04-.38,1.41,0,.09,.09,.16,.2,.22,.32,.05,.12,.07,.25,.07,.38,0,.27-.1,.52-.29,.71-.09,.09-.2,.17-.32,.22s-.25,.07-.39,.07Z"/><path d="M32.02,45.71c-3.36,0-6.5-1.81-8.18-4.73-.28-.48-.11-1.09,.36-1.37,.48-.28,1.09-.11,1.37,.36,1.33,2.3,3.81,3.73,6.45,3.73,4.11,0,7.46-3.35,7.46-7.46,0-2.65-1.43-5.12-3.73-6.45-.48-.28-.64-.89-.36-1.37,.28-.48,.89-.64,1.37-.36,2.92,1.69,4.73,4.83,4.73,8.18,0,5.22-4.24,9.46-9.46,9.46Z"/><path d="M32.02,37.25h-8.46c-.55,0-1-.45-1-1,0-5.22,4.24-9.46,9.46-9.46,.55,0,1,.45,1,1v8.46c0,.55-.45,1-1,1Zm-7.39-2h6.39v-6.39c-3.32,.45-5.95,3.08-6.39,6.39Z"/></svg>