<?xml version="1.0" encoding="UTF-8"?>
<svg xmlns="http://www.w3.org/2000/svg" id="Layer_1" viewBox="0 0 100 100"><path d="M36.25,72.15h-6.35c-.55,0-1-.45-1-1s.45-1,1-1h5.35v-1.12c0-.55,.45-1,1-1s1,.45,1,1v2.12c0,.55-.45,1-1,1Z"/><path d="M29.91,75.32h-6.35c-.55,0-1-.45-1-1v-6.35c0-.55,.45-1,1-1h6.35c.55,0,1,.45,1,1v6.35c0,.55-.45,1-1,1Zm-5.35-2h4.35v-4.35h-4.35v4.35Z"/><path d="M36.25,31.96c-.55,0-1-.45-1-1v-1.12h-5.35c-.55,0-1-.45-1-1s.45-1,1-1h6.35c.55,0,1,.45,1,1v2.12c0,.55-.45,1-1,1Z"/><path d="M29.91,33.02h-6.35c-.55,0-1-.45-1-1v-6.35c0-.55,.45-1,1-1h6.35c.55,0,1,.45,1,1v6.35c0,.55-.45,1-1,1Zm-5.35-2h4.35v-4.35h-4.35v4.35Z"/><path d="M27.79,54.17h-6.35c-.55,0-1-.45-1-1v-6.35c0-.55,.45-1,1-1h6.35c.55,0,1,.45,1,1v6.35c0,.55-.45,1-1,1Zm-5.35-2h4.35v-4.35h-4.35v4.35Z"/><path d="M70.09,72.15h-6.35c-.55,0-1-.45-1-1v-2.12c0-.55,.45-1,1-1s1,.45,1,1v1.12h5.35c.55,0,1,.45,1,1s-.45,1-1,1Z"/><path d="M76.44,75.32h-6.35c-.55,0-1-.45-1-1v-6.35c0-.55,.45-1,1-1h6.35c.55,0,1,.45,1,1v6.35c0,.55-.45,1-1,1Zm-5.35-2h4.35v-4.35h-4.35v4.35Z"/><path d="M63.75,31.96c-.55,0-1-.45-1-1v-2.12c0-.55,.45-1,1-1h6.35c.55,0,1,.45,1,1s-.45,1-1,1h-5.35v1.12c0,.55-.45,1-1,1Z"/><path d="M76.44,33.02h-6.35c-.55,0-1-.45-1-1v-6.35c0-.55,.45-1,1-1h6.35c.55,0,1,.45,1,1v6.35c0,.55-.45,1-1,1Zm-5.35-2h4.35v-4.35h-4.35v4.35Z"/><path d="M32.02,51h-4.23c-.55,0-1-.45-1-1s.45-1,1-1h4.23c.55,0,1,.45,1,1s-.45,1-1,1Z"/><path d="M78.56,54.17h-6.35c-.55,0-1-.45-1-1v-6.35c0-.55,.45-1,1-1h6.35c.55,0,1,.45,1,1v6.35c0,.55-.45,1-1,1Zm-5.35-2h4.35v-4.35h-4.35v4.35Z"/><path d="M72.21,51h-4.23c-.55,0-1-.45-1-1s.45-1,1-1h4.23c.55,0,1,.45,1,1s-.45,1-1,1Z"/><path d="M50,43.59c-7.15,0-14.75-2.2-14.75-6.29s7.6-6.29,14.75-6.29,14.75,2.2,14.75,6.29-7.6,6.29-14.75,6.29Zm0-10.58c-7.9,0-12.75,2.5-12.75,4.29s4.85,4.29,12.75,4.29,12.75-2.5,12.75-4.29-4.85-4.29-12.75-4.29Z"/><path d="M50,68.98c-7.15,0-14.75-2.2-14.75-6.29v-25.38c0-.55,.45-1,1-1s1,.45,1,1v25.38c0,1.79,4.85,4.29,12.75,4.29s12.75-2.5,12.75-4.29v-25.38c0-.55,.45-1,1-1s1,.45,1,1v25.38c0,4.08-7.6,6.29-14.75,6.29Z"/><path d="M50,60.52c-7.15,0-14.75-2.2-14.75-6.29,0-.55,.45-1,1-1s1,.45,1,1c0,1.79,4.85,4.29,12.75,4.29s12.75-2.5,12.75-4.29c0-.55,.45-1,1-1s1,.45,1,1c0,4.08-7.6,6.29-14.75,6.29Z"/><path d="M50,52.06c-7.15,0-14.75-2.2-14.75-6.29,0-.55,.45-1,1-1s1,.45,1,1c0,1.79,4.85,4.29,12.75,4.29s12.75-2.5,12.75-4.29c0-.55,.45-1,1-1s1,.45,1,1c0,4.08-7.6,6.29-14.75,6.29Z"/><path d="M43.65,75.32c-.27,0-.52-.1-.71-.29-.04-.04-.09-.09-.12-.15-.04-.05-.07-.11-.09-.17-.03-.06-.05-.13-.06-.19,0-.06-.02-.13-.02-.19,0-.14,.02-.26,.08-.39,.05-.12,.12-.23,.21-.32,.37-.37,1.04-.37,1.42,0,.09,.09,.16,.2,.21,.32,.05,.13,.08,.25,.08,.39,0,.26-.11,.52-.29,.7-.19,.19-.45,.29-.71,.29Z"/><path d="M47.88,75.33c-.26,0-.52-.11-.71-.3-.18-.18-.29-.44-.29-.7,0-.14,.03-.26,.08-.39,.05-.12,.12-.23,.21-.32,.23-.23,.58-.34,.91-.27,.06,.01,.12,.03,.18,.05,.06,.03,.12,.06,.18,.09,.05,.04,.1,.08,.15,.13,.09,.09,.16,.2,.21,.32,.05,.13,.08,.25,.08,.39,0,.26-.11,.52-.29,.7-.05,.05-.1,.09-.15,.13-.06,.03-.12,.06-.18,.09-.06,.02-.12,.04-.18,.06-.07,.01-.13,.02-.2,.02Z"/><path d="M52.11,75.33c-.13,0-.26-.03-.38-.08-.12-.05-.23-.12-.33-.22-.18-.18-.29-.44-.29-.7s.11-.53,.29-.71c.1-.1,.21-.17,.33-.22,.18-.07,.38-.1,.58-.06,.06,.02,.12,.04,.18,.06l.18,.09s.1,.08,.15,.13c.18,.18,.29,.44,.29,.71s-.11,.52-.29,.7c-.05,.05-.1,.09-.15,.13-.06,.03-.12,.06-.18,.09-.06,.02-.12,.04-.18,.06-.07,.01-.13,.02-.2,.02Z"/><path d="M56.34,75.33c-.26,0-.52-.11-.71-.3-.18-.18-.29-.44-.29-.7s.11-.53,.29-.71c.38-.37,1.05-.37,1.42,0,.18,.18,.29,.44,.29,.71,0,.06,0,.13-.02,.19,0,.06-.03,.13-.06,.19-.02,.06-.05,.12-.09,.17-.03,.06-.08,.11-.12,.15-.05,.05-.1,.09-.15,.13-.06,.03-.12,.06-.18,.09-.06,.02-.12,.04-.18,.06-.07,.01-.13,.02-.2,.02Z"/></svg>