<?xml version="1.0" encoding="UTF-8"?>
<svg xmlns="http://www.w3.org/2000/svg" id="Layer_1" viewBox="0 0 100 100"><path d="M36.25,72.15h-6.35c-.55,0-1-.45-1-1s.45-1,1-1h5.35v-2.17c0-.55,.45-1,1-1s1,.45,1,1v3.17c0,.55-.45,1-1,1Z"/><path d="M29.91,75.33h-6.35c-.55,0-1-.45-1-1v-6.35c0-.55,.45-1,1-1h6.35c.55,0,1,.45,1,1v6.35c0,.55-.45,1-1,1Zm-5.35-2h4.35v-4.35h-4.35v4.35Z"/><path d="M36.25,41.48c-.55,0-1-.45-1-1v-2.17h-5.35c-.55,0-1-.45-1-1s.45-1,1-1h6.35c.55,0,1,.45,1,1v3.17c0,.55-.45,1-1,1Z"/><path d="M29.91,41.48h-6.35c-.55,0-1-.45-1-1v-6.35c0-.55,.45-1,1-1h6.35c.55,0,1,.45,1,1v6.35c0,.55-.45,1-1,1Zm-5.35-2h4.35v-4.35h-4.35v4.35Z"/><path d="M27.79,58.4h-6.35c-.55,0-1-.45-1-1v-6.35c0-.55,.45-1,1-1h6.35c.55,0,1,.45,1,1v6.35c0,.55-.45,1-1,1Zm-5.35-2h4.35v-4.35h-4.35v4.35Z"/><path d="M70.09,72.15h-6.35c-.55,0-1-.45-1-1v-3.17c0-.55,.45-1,1-1s1,.45,1,1v2.17h5.35c.55,0,1,.45,1,1s-.45,1-1,1Z"/><path d="M76.44,75.33h-6.35c-.55,0-1-.45-1-1v-6.35c0-.55,.45-1,1-1h6.35c.55,0,1,.45,1,1v6.35c0,.55-.45,1-1,1Zm-5.35-2h4.35v-4.35h-4.35v4.35Z"/><path d="M63.75,41.48c-.55,0-1-.45-1-1v-3.17c0-.55,.45-1,1-1h6.35c.55,0,1,.45,1,1s-.45,1-1,1h-5.35v2.17c0,.55-.45,1-1,1Z"/><path d="M76.44,41.48h-6.35c-.55,0-1-.45-1-1v-6.35c0-.55,.45-1,1-1h6.35c.55,0,1,.45,1,1v6.35c0,.55-.45,1-1,1Zm-5.35-2h4.35v-4.35h-4.35v4.35Z"/><path d="M32.02,55.23h-4.23c-.55,0-1-.45-1-1s.45-1,1-1h4.23c.55,0,1,.45,1,1s-.45,1-1,1Z"/><path d="M78.56,58.4h-6.35c-.55,0-1-.45-1-1v-6.35c0-.55,.45-1,1-1h6.35c.55,0,1,.45,1,1v6.35c0,.55-.45,1-1,1Zm-5.35-2h4.35v-4.35h-4.35v4.35Z"/><path d="M72.21,55.23h-4.23c-.55,0-1-.45-1-1s.45-1,1-1h4.23c.55,0,1,.45,1,1s-.45,1-1,1Z"/><path d="M57.4,43.6c-.55,0-1-.45-1-1v-9.52c0-3.53-2.87-6.4-6.4-6.4s-6.4,2.87-6.4,6.4v9.52c0,.55-.45,1-1,1s-1-.45-1-1v-9.52c0-4.63,3.77-8.4,8.4-8.4s8.4,3.77,8.4,8.4v9.52c0,.55-.45,1-1,1Z"/><path d="M50,58.4c-2.3,0-4.17-1.87-4.17-4.17s1.87-4.17,4.17-4.17,4.17,1.87,4.17,4.17-1.87,4.17-4.17,4.17Zm0-6.35c-1.2,0-2.17,.97-2.17,2.17s.97,2.17,2.17,2.17,2.17-.97,2.17-2.17-.97-2.17-2.17-2.17Z"/><path d="M50,61.58c-.55,0-1-.45-1-1v-3.17c0-.55,.45-1,1-1s1,.45,1,1v3.17c0,.55-.45,1-1,1Z"/><path d="M65.86,26.68c-.27,0-.52-.11-.71-.29-.09-.1-.16-.21-.21-.33-.05-.12-.08-.25-.08-.38,0-.27,.11-.52,.29-.71,.23-.23,.58-.34,.9-.27,.07,.01,.13,.03,.19,.06,.06,.02,.12,.05,.17,.09,.06,.03,.11,.08,.16,.12,.18,.19,.29,.44,.29,.71,0,.13-.03,.26-.08,.38-.05,.12-.12,.23-.21,.33-.05,.04-.1,.08-.16,.12-.05,.04-.11,.07-.17,.09-.06,.03-.12,.05-.19,.06-.06,.01-.13,.02-.19,.02Z"/><path d="M61.63,26.68c-.07,0-.13,0-.2-.02-.06,0-.12-.03-.18-.06-.06-.02-.12-.05-.18-.09-.05-.04-.1-.08-.15-.12-.09-.1-.16-.21-.21-.33-.06-.12-.08-.25-.08-.38,0-.26,.11-.52,.29-.71,.05-.04,.1-.09,.15-.12,.06-.04,.12-.07,.18-.09,.06-.03,.12-.05,.18-.06,.13-.03,.27-.03,.39,0,.07,.01,.13,.03,.19,.06,.06,.02,.12,.05,.17,.09,.06,.03,.11,.08,.16,.12,.18,.19,.29,.45,.29,.71,0,.13-.03,.26-.08,.38-.05,.12-.12,.23-.21,.33-.05,.04-.1,.08-.16,.12-.05,.04-.11,.07-.17,.09-.06,.03-.12,.05-.19,.06-.06,.01-.13,.02-.19,.02Z"/><path d="M65.86,30.91c-.27,0-.52-.11-.71-.29-.09-.1-.16-.21-.21-.33-.05-.12-.08-.25-.08-.38,0-.07,0-.13,.02-.2,.01-.06,.03-.12,.06-.18,.02-.06,.05-.12,.09-.18,.04-.05,.08-.1,.12-.15,.23-.23,.58-.34,.9-.27,.07,.01,.13,.03,.19,.06,.06,.02,.12,.05,.17,.09,.06,.03,.11,.08,.16,.12,.04,.05,.08,.1,.12,.15,.04,.06,.07,.12,.09,.18,.03,.06,.05,.12,.06,.18,.01,.07,.02,.13,.02,.2,0,.13-.03,.26-.08,.38-.05,.12-.12,.23-.21,.33-.05,.04-.1,.08-.16,.12-.05,.04-.11,.07-.17,.09-.06,.03-.12,.05-.19,.06-.06,.01-.13,.02-.19,.02Z"/><path d="M70.09,30.91c-.06,0-.13,0-.19-.02-.07,0-.13-.03-.19-.06-.06-.02-.12-.05-.17-.09-.06-.04-.11-.08-.16-.12-.04-.05-.08-.1-.12-.16-.04-.05-.07-.11-.09-.17-.03-.06-.05-.12-.06-.19,0-.06-.02-.13-.02-.19,0-.13,.03-.26,.08-.38,.05-.13,.12-.23,.21-.33,.05-.04,.1-.09,.16-.12,.05-.04,.11-.07,.17-.09,.06-.03,.12-.05,.19-.06,.12-.03,.26-.03,.39,0,.06,.01,.12,.03,.18,.06,.06,.02,.12,.05,.17,.09,.06,.03,.11,.08,.16,.12,.09,.1,.16,.2,.21,.33,.05,.12,.08,.25,.08,.38,0,.06,0,.13-.02,.19,0,.07-.03,.13-.06,.19-.02,.06-.05,.12-.09,.17-.04,.06-.08,.11-.12,.16-.05,.04-.1,.08-.16,.12-.05,.04-.11,.07-.17,.09-.06,.03-.12,.05-.18,.06-.07,.01-.13,.02-.2,.02Z"/><path d="M34.13,26.68c-.26,0-.52-.11-.71-.29-.18-.19-.29-.45-.29-.71,0-.13,.03-.26,.08-.38,.05-.13,.12-.24,.21-.33,.37-.37,1.05-.37,1.42,0,.18,.19,.29,.45,.29,.71s-.11,.52-.29,.71c-.19,.18-.45,.29-.71,.29Z"/><path d="M38.36,26.68c-.26,0-.52-.11-.7-.29-.19-.19-.3-.45-.3-.71s.11-.52,.3-.71c.04-.05,.09-.09,.15-.12,.05-.04,.11-.07,.17-.09,.06-.03,.12-.05,.19-.06,.32-.07,.66,.04,.9,.27,.19,.19,.29,.45,.29,.71s-.1,.52-.29,.71c-.19,.18-.45,.29-.71,.29Z"/><path d="M43.65,73.21c-.26,0-.52-.1-.71-.29-.04-.04-.09-.1-.12-.15-.04-.06-.07-.11-.09-.17-.03-.06-.05-.13-.06-.19,0-.07-.02-.13-.02-.2,0-.13,.02-.26,.08-.38,.05-.12,.12-.23,.21-.32,.38-.38,1.04-.38,1.42,0,.09,.09,.16,.2,.21,.32,.05,.12,.08,.25,.08,.38,0,.27-.11,.53-.29,.71-.19,.19-.45,.29-.71,.29Z"/><path d="M47.88,73.21c-.26,0-.52-.1-.71-.29-.18-.19-.29-.44-.29-.71,0-.13,.03-.26,.08-.38,.05-.12,.12-.23,.21-.32,.23-.23,.58-.34,.91-.28,.06,.02,.12,.04,.18,.06l.18,.09s.1,.08,.15,.13c.09,.09,.16,.2,.21,.32,.05,.12,.08,.25,.08,.38,0,.27-.11,.52-.29,.71-.05,.05-.1,.09-.15,.12-.06,.04-.12,.07-.18,.1-.06,.02-.12,.04-.18,.05-.07,.02-.13,.02-.2,.02Z"/><path d="M52.11,73.21c-.13,0-.26-.02-.38-.07-.12-.05-.23-.13-.33-.22-.18-.19-.29-.44-.29-.71s.11-.52,.29-.7c.1-.1,.21-.17,.33-.22,.18-.08,.38-.1,.58-.06,.06,.02,.12,.03,.18,.06,.06,.02,.12,.06,.18,.09,.05,.04,.1,.08,.15,.13,.18,.18,.29,.44,.29,.7s-.11,.52-.29,.71c-.05,.05-.1,.09-.15,.13l-.18,.09c-.06,.02-.12,.04-.18,.05-.07,.02-.13,.02-.2,.02Z"/><path d="M56.34,73.21c-.26,0-.52-.1-.71-.29-.18-.18-.29-.44-.29-.71s.11-.52,.29-.71c.24-.23,.59-.33,.91-.27,.06,.02,.12,.03,.18,.06l.18,.09s.1,.08,.15,.12c.18,.19,.29,.45,.29,.71s-.11,.52-.29,.71c-.05,.05-.1,.09-.15,.13-.06,.03-.12,.06-.18,.09-.06,.02-.12,.04-.18,.05-.07,.02-.13,.02-.2,.02Z"/><path d="M34.13,30.91c-.26,0-.52-.11-.71-.29-.18-.19-.29-.45-.29-.71s.11-.52,.29-.71c.38-.37,1.04-.37,1.42,0,.04,.05,.09,.1,.12,.15,.04,.06,.07,.12,.09,.18,.03,.06,.05,.12,.06,.18,.02,.07,.02,.13,.02,.2,0,.26-.11,.52-.29,.71-.19,.18-.44,.29-.71,.29Z"/><path d="M29.9,30.91c-.26,0-.52-.11-.71-.29-.18-.19-.29-.45-.29-.71s.11-.52,.29-.71c.37-.37,1.05-.37,1.42,0,.09,.09,.16,.2,.21,.33,.05,.12,.08,.25,.08,.38,0,.26-.11,.52-.29,.71-.05,.04-.1,.08-.15,.12-.06,.04-.12,.07-.18,.09-.06,.03-.12,.05-.18,.06-.07,.01-.13,.02-.2,.02Z"/><path d="M57.75,66.86h-15.5c-3.86,0-7-3.14-7-7v-11.27c0-3.86,3.14-7,7-7h15.5c3.86,0,7,3.14,7,7v11.27c0,3.86-3.14,7-7,7Zm-15.5-23.27c-2.76,0-5,2.24-5,5v11.27c0,2.76,2.24,5,5,5h15.5c2.76,0,5-2.24,5-5v-11.27c0-2.76-2.24-5-5-5h-15.5Z"/></svg>