<svg id="Layer_1" data-name="Layer 1" xmlns="http://www.w3.org/2000/svg" xmlns:xlink="http://www.w3.org/1999/xlink" viewBox="0 0 400 300" data-imageid="calling-isometric" imageName="Calling" class="illustrations_image" style="width: 168px;"><defs><linearGradient id="linear-gradient" x1="106.18" y1="182.72" x2="134.15" y2="152.6" gradientUnits="userSpaceOnUse"><stop offset="0" stop-color="#fff" stop-opacity="0"/><stop offset="1" stop-color="#7f2e00"/></linearGradient><linearGradient id="linear-gradient-2" x1="120.99" y1="212.54" x2="145.6" y2="186.04" xlink:href="#linear-gradient"/><linearGradient id="linear-gradient-3" x1="193.52" y1="256.43" x2="217.98" y2="230.08" xlink:href="#linear-gradient"/></defs><title>61-70</title><path d="M105.28,140.66l-37,21.3a6.63,6.63,0,0,0,.08,11.55L241.63,270a6.63,6.63,0,0,0,6.91-.28L332.13,214a6.63,6.63,0,0,0-.4-11.29L163.43,107a6.63,6.63,0,0,0-6.9.21L105.6,140.47Z" fill="#fc857a"/><path d="M152.9,134.88l-56.16,33.8,17.2,6.29c13.36-10.52,39.5-23,52.93-33.4q-2-1.4-3.82-2.72C151.95,139.58,160.82,143.39,152.9,134.88Z" opacity="0.32" fill="url(#linear-gradient)"/><path d="M142,168.81l-34.61,26.45,27.49,15.31c13.36-10.52,31.4-18.86,44.83-29.31q-2-1.4-3.82-2.72C164.78,179.28,149.91,177.32,142,168.81Z" opacity="0.32" fill="url(#linear-gradient-2)"/><path d="M228.75,205.24a.67.67,0,0,1,0-.73c.14-.25-3.62-1-3.48-1.26.18-.62-2.24-.75-2.07-1.37-6.34-2.81-7.64-3.78-12.46-8.44l-47.35,30.4,65,37.19L273.82,235C273.92,234.51,236.44,213.71,228.75,205.24Z" opacity="0.32" fill="url(#linear-gradient-3)"/><path d="M266.82,146.24a13.08,13.08,0,0,0-5.83-7.46c.83-6.32-3.65-13.43-9.27-15.93a14.54,14.54,0,0,0-3.27-1c-3.1-7.94-13.32-10.42-20.9-8.08-.6.19-1.22.4-1.84.65a10.61,10.61,0,0,0-1.19-.72c-9-4.61-19.7,1.56-22.52,10.61-.73,2.34,2.94,3.34,3.67,1a13.33,13.33,0,0,1,10.28-9.17,11.55,11.55,0,0,1,5.69.4,12.59,12.59,0,0,0-3.94,4,6,6,0,0,0,3.15,8.67c3.81,1.53,8-1.29,9-5.09a8.44,8.44,0,0,0-1.23-6.75,16.56,16.56,0,0,1,6.46-.69,13.81,13.81,0,0,1,9.08,5,11.75,11.75,0,0,0-5.66,2.17c-2.7,2-4.1,6-1.76,8.89s6.75,2.3,9.3.11a9.36,9.36,0,0,0,3.17-6.89,11.16,11.16,0,0,1,4.54,2.94,12.48,12.48,0,0,1,3.35,7.36,7.4,7.4,0,0,1,0,1c-3.16-.73-7.14-.55-9.45,1.76a4.63,4.63,0,0,0,1.38,7.59c3.47,1.7,7.69.15,9.92-2.81a10.46,10.46,0,0,0,.8-1.24,9,9,0,0,1,3.39,4.72c2,6.36-2.89,12.13-9.28,12.27-2.44.05-2.45,3.86,0,3.8C262.7,163.13,269.46,155,266.82,146.24Zm-40.64-23.09q-.87,3.08-4.37,2.39l-.26-3.85c.36-1,1.91-2.05,3.48-2.83A5.23,5.23,0,0,1,226.19,123.14Zm17.53,6.72q-2.38,2.39-2-1.21-1.54-2.63,1.33-2.86a7.6,7.6,0,0,1,2.43-.38,6.24,6.24,0,0,1-.59,2.69A4.19,4.19,0,0,1,243.72,129.86Zm8.43,13.51c-2.7-.62-1.18-2.34.91-2.61a8.8,8.8,0,0,1,3.17.17C255.44,142.58,254.12,143.82,252.14,143.37Z" fill="#c2d076" class="target-color"/><path d="M266.82,146.24a13.08,13.08,0,0,0-5.83-7.46c.83-6.32-3.65-13.43-9.27-15.93a14.54,14.54,0,0,0-3.27-1c-3.1-7.94-13.32-10.42-20.9-8.08-.6.19-1.22.4-1.84.65a10.61,10.61,0,0,0-1.19-.72c-9-4.61-19.7,1.56-22.52,10.61-.73,2.34,2.94,3.34,3.67,1a13.33,13.33,0,0,1,10.28-9.17,11.55,11.55,0,0,1,5.69.4,12.59,12.59,0,0,0-3.94,4,6,6,0,0,0,3.15,8.67c3.81,1.53,8-1.29,9-5.09a8.44,8.44,0,0,0-1.23-6.75,16.56,16.56,0,0,1,6.46-.69,13.81,13.81,0,0,1,9.08,5,11.75,11.75,0,0,0-5.66,2.17c-2.7,2-4.1,6-1.76,8.89s6.75,2.3,9.3.11a9.36,9.36,0,0,0,3.17-6.89,11.16,11.16,0,0,1,4.54,2.94,12.48,12.48,0,0,1,3.35,7.36,7.4,7.4,0,0,1,0,1c-3.16-.73-7.14-.55-9.45,1.76a4.63,4.63,0,0,0,1.38,7.59c3.47,1.7,7.69.15,9.92-2.81a10.46,10.46,0,0,0,.8-1.24,9,9,0,0,1,3.39,4.72c2,6.36-2.89,12.13-9.28,12.27-2.44.05-2.45,3.86,0,3.8C262.7,163.13,269.46,155,266.82,146.24Zm-40.64-23.09q-.87,3.08-4.37,2.39l-.26-3.85c.36-1,1.91-2.05,3.48-2.83A5.23,5.23,0,0,1,226.19,123.14Zm17.53,6.72q-2.38,2.39-2-1.21-1.54-2.63,1.33-2.86a7.6,7.6,0,0,1,2.43-.38,6.24,6.24,0,0,1-.59,2.69A4.19,4.19,0,0,1,243.72,129.86Zm8.43,13.51c-2.7-.62-1.18-2.34.91-2.61a8.8,8.8,0,0,1,3.17.17C255.44,142.58,254.12,143.82,252.14,143.37Z" fill="#272322" opacity="0.55"/><path d="M226.43-9.46l-4.5-13.15a10.8,10.8,0,0,0-4.32.49A8.17,8.17,0,0,0,214.15-20c-.53,4.9,1.19,20.69,9.75,22.46C232.64,4.28,226.43-9.46,226.43-9.46Z" fill="#dbdbdb"/><path d="M261.54,173.89q-9-4.15-18-8.3c-5.6-2.6-12.44-6.16-12-13.35,0-.76-1.14-.76-1.18,0-.34,5.95,4.15,10.06,9,12.64,7,3.7,14.4,6.72,21.57,10C261.63,175.23,262.23,174.21,261.54,173.89Z" fill="#da4131"/><path d="M263.32,160.68v12a.59.59,0,0,0,1.18,0v-12A.59.59,0,0,0,263.32,160.68Z" fill="#da4131"/><path d="M255.51,186.42c-3.35-5.78-9.71-8.63-15.82-10.55-6.84-2.16-14.39-3.64-21.06-.2a.5.5,0,0,0-.29.51,35.2,35.2,0,0,0-5.32,2.7c-5,3.06-11.15,7.25-13.65,12.76-2.59,5.72-.33,13,1.65,18.59s5.36,10.9,10.78,13.9,12,3.7,18.18,2.81c6.53-.94,13.75-3.24,19.14-7.19C258.45,212.91,261.27,196.36,255.51,186.42Zm-4.64,30.27c-4.12,4.2-10.17,6.41-15.73,7.95-5.78,1.59-12,2.16-17.81.49a21.26,21.26,0,0,1-13.17-10.64,40.24,40.24,0,0,1-4.72-17.1c-.09-7.28,6.22-12,11.65-15.82,5.75-4,12.48-7.14,19.61-5.49a.61.61,0,0,0,.57-1,44.53,44.53,0,0,1,5.85,1.26c5.21,1.46,10.72,3.36,14.67,7.21,4.28,4.17,5.53,10.2,5.26,16C256.76,205.57,255.23,212.24,250.87,216.69Z" fill="#da4131"/><path d="M236.88,200.83a12.06,12.06,0,0,0-9.53-9.76c1.43-.71,2.91-1.31,4.31-1.88.7-.28.39-1.43-.31-1.14a48.72,48.72,0,0,0-6,2.82h0a.53.53,0,0,0-.51.32c-3.49,2.12-6.37,5-6.74,9.4-.5,5.75,5.17,10.19,10.55,10.4C234.21,211.2,237.74,206.2,236.88,200.83Zm-9.74,8.81c-5.1-1-9.32-5.75-7.47-11.07a12.45,12.45,0,0,1,5.84-6.51,10.8,10.8,0,0,1,9.87,7.55C237.16,205.24,233.21,210.82,227.14,209.63Z" fill="#da4131"/><path d="M232.74,199.13c-.94-2.46-4.23-1.91-5.75-3.68-.5-.58-1.33.26-.84.84a6,6,0,0,0,3,1.64,5.83,5.83,0,0,1,1.94.89.52.52,0,0,0-.75.37l-.42,2a.6.6,0,0,0,.27.67C231.82,202.63,233.36,200.74,232.74,199.13Zm-1.59,1.75.29-1.38a.59.59,0,0,0,0-.3,1.21,1.21,0,0,1,.23.55C231.69,200.05,231.54,200.73,231.15,200.88Z" fill="#da4131"/><polygon points="177.34 215.07 243.12 252.71 292.61 224.13 292.61 174.97 239.16 144.31 214.88 157.36 177.34 215.07" fill="#c2d076" class="target-color"/><polygon points="292.61 174.97 268.89 188.63 243.12 252.71 292.61 224.13 292.61 174.97" fill="#c2d076" class="target-color"/><polygon points="177.34 215.07 243.12 252.71 292.61 224.13 292.61 174.97 239.16 144.31 214.88 157.36 177.34 215.07" fill="#272322" opacity="0.22"/><polygon points="292.61 174.97 268.89 188.63 243.12 252.71 292.61 224.13 292.61 174.97" fill="#272322" opacity="0.55"/><polygon points="268.89 188.63 214.88 157.36 177.34 215.07 243.12 252.71 268.89 188.63" fill="#c2d076" class="target-color"/><ellipse cx="227.13" cy="203.46" rx="22.37" ry="21.82" fill="#fdbf30"/><ellipse cx="211.5" cy="194.36" rx="2.96" ry="2.64" transform="translate(-73.42 230.76) rotate(-49.86)" fill="#444a93"/><ellipse cx="210.91" cy="193.98" rx="2.96" ry="2.64" transform="translate(-62.54 279.64) rotate(-60)" fill="#686ebc"/><ellipse cx="223.39" cy="187.58" rx="2.96" ry="2.64" transform="translate(-64.02 237.44) rotate(-49.86)" fill="#444a93"/><ellipse cx="222.79" cy="187.2" rx="2.96" ry="2.64" transform="translate(-50.72 286.54) rotate(-60)" fill="#686ebc"/><ellipse cx="235.25" cy="188.91" rx="2.96" ry="2.64" transform="translate(-60.82 246.97) rotate(-49.86)" fill="#444a93"/><ellipse cx="234.65" cy="188.53" rx="2.96" ry="2.64" transform="translate(-45.95 297.47) rotate(-60)" fill="#686ebc"/><ellipse cx="243.25" cy="200.68" rx="2.96" ry="2.64" transform="translate(-66.98 257.28) rotate(-49.86)" fill="#444a93"/><ellipse cx="242.65" cy="200.3" rx="2.96" ry="2.64" transform="translate(-52.14 310.29) rotate(-60)" fill="#686ebc"/><ellipse cx="239.53" cy="214.06" rx="2.96" ry="2.64" transform="translate(-78.52 259.18) rotate(-49.86)" fill="#444a93"/><ellipse cx="238.93" cy="213.68" rx="2.96" ry="2.64" transform="translate(-65.59 313.76) rotate(-60)" fill="#686ebc"/><ellipse cx="211.18" cy="208.03" rx="2.96" ry="2.64" transform="translate(-83.99 235.37) rotate(-49.86)" fill="#444a93"/><ellipse cx="210.58" cy="207.65" rx="2.96" ry="2.64" transform="translate(-74.54 286.19) rotate(-60)" fill="#686ebc"/><ellipse cx="224.22" cy="217.14" rx="2.96" ry="2.64" transform="translate(-86.32 248.57) rotate(-49.86)" fill="#444a93"/><ellipse cx="223.62" cy="216.76" rx="2.96" ry="2.64" transform="translate(-75.91 302.04) rotate(-60)" fill="#686ebc"/><ellipse cx="227.13" cy="202.05" rx="9.72" ry="9.48" fill="none" stroke="#662d91" stroke-miterlimit="10"/><path d="M203.16,95c0,.42-.35,6.48-.35,6.48l-1.64,1V94.37" fill="#af2b27"/><ellipse cx="213.52" cy="77.75" rx="19.9" ry="26.48" transform="translate(92.89 270.33) rotate(-77.94)" fill="#af2b27"/><ellipse cx="211.18" cy="77.75" rx="19.9" ry="26.48" transform="translate(91.03 268.03) rotate(-77.94)" fill="#fc857a"/><path d="M202.08,93.82l-.9,8.66s-8.3-13.89-6.68-15.52S202.46,90.17,202.08,93.82Z" fill="#fc857a"/><path d="M210.18,138.78s6.42,16.54-7.19,26.47-35,24-43.79,26.24-21.69-4.18-24.33-5.83c0,0,17.6-9.24,23.11-8.23a27.53,27.53,0,0,0,16.21-2.84c3.34-2,26.57-18.09,27.07-20.74S210.18,138.78,210.18,138.78Z" fill="#c2d076" class="target-color"/><path d="M139.44,162.74v.7a.59.59,0,0,0,1.18,0v-.7A.59.59,0,0,0,139.44,162.74Z" fill="#da4131"/><path d="M197.56,119.23a5,5,0,0,1,5.48,2.16c1.5,2.42,2.9,4.93,4.15,7.48,4.51,9.2,4.74,20.8-2,29.13-6.48,8-15.62,13.91-24.24,19.29-37.21,23.21-52.41,3.95-53.66,2.05s-8.11-5-.21-13.77,16.87-5.48,18.39-3.39,6.08,12.07,12.41,10.49,32.77-18.66,33.28-22.07S185,139,183.85,138.3,181.7,123.32,197.56,119.23Z" fill="#c2d076" class="target-color"/><path d="M184,137.93a5.63,5.63,0,0,0,3.3.85c6.43-.23,12.09-5.37,15.39-10.55,1.7-2.67,2.26-5.51-.48-7.63-5.52-4.27-12-1.09-16,3.6a16.51,16.51,0,0,0-3.62,6.73c-.48,2-.84,4.56.62,6.29A3.93,3.93,0,0,0,184,137.93Z" fill="#c2d076" class="target-color"/><path d="M125.73,177.93a5.63,5.63,0,0,0,3.3.85c6.43-.23,12.09-5.37,15.39-10.55,1.7-2.67,2.26-5.51-.48-7.63-5.52-4.27-12-1.09-16,3.6a16.51,16.51,0,0,0-3.62,6.73c-.48,2-.84,4.56.62,6.29A3.93,3.93,0,0,0,125.73,177.93Z" fill="#c2d076" class="target-color"/><path d="M184,137.93a5.63,5.63,0,0,0,3.3.85c6.43-.23,12.09-5.37,15.39-10.55,1.7-2.67,2.26-5.51-.48-7.63-5.52-4.27-12-1.09-16,3.6a16.51,16.51,0,0,0-3.62,6.73c-.48,2-.84,4.56.62,6.29A3.93,3.93,0,0,0,184,137.93Z" fill="#fff" opacity="0.5"/><path d="M125.73,177.93a5.63,5.63,0,0,0,3.3.85c6.43-.23,12.09-5.37,15.39-10.55,1.7-2.67,2.26-5.51-.48-7.63-5.52-4.27-12-1.09-16,3.6a16.51,16.51,0,0,0-3.62,6.73c-.48,2-.84,4.56.62,6.29A3.93,3.93,0,0,0,125.73,177.93Z" fill="#fff" opacity="0.5"/><path d="M146.81,134.43s-.12,6.14.61,6.52,5.37,6.42,5.69,7.37c1.07,3.15-4.75,4.54-6.84,3.47s-5.59-7-5.83-8.47-2-10.68-2-10.68" fill="#5b5ea5"/><path d="M155.55,129.08s-.12,6.14.61,6.52,8.31,4.87,8.69,5.79c1.21,2.93-4.69,4-6.78,3s-8.65-4.9-8.9-6.4-2-10.68-2-10.68" fill="#5b5ea5"/><path d="M132,69.92s-4.4,6.9-3.81,13.09,6.78,55.43,10.76,54.93,6.36.07,8.44-5.14c0,0,6.68,1.52,8.81-3.79,0,0-1.61-46.19-5.41-53.44S132,69.92,132,69.92Z" fill="#ffc8c5"/><path d="M188.93,51.82a21.06,21.06,0,0,0-3.38-.56,18.84,18.84,0,0,1,3.45.35c1.19.19,1.33-1.67.14-1.87l-.59-.09a1,1,0,0,0-.61-1.58,18.35,18.35,0,0,0-7.74.71,15.58,15.58,0,0,0-.05-2.84.83.83,0,0,0-.19-.44,1,1,0,0,0-1.85.25c-.26,1.5-.18,3-.44,4.52a5.89,5.89,0,0,1-.2.79q-1.73,1.8-3.41,3.64c-.79.87.66,1.9,1.47,1.13a1.1,1.1,0,0,0,.5.41l-.14.18a.84.84,0,0,0-.1.84l-.13.13c-.86.84.34,2.28,1.2,1.43l.3-.3a.75.75,0,0,0,1.1-.3,8.81,8.81,0,0,1,2.9-2.89l.37-.25a11.85,11.85,0,0,1,3.15-.61c.8.2,1.59.44,2.37.69a.93.93,0,0,0,.73-1.71l.51.11C189.46,53.87,190.1,52.11,188.93,51.82Z" fill="#ffc388"/><path d="M188.7,49.41a20.7,20.7,0,0,0-3.72-.17c-.3,0-.34.49,0,.48a20.7,20.7,0,0,1,3.72.17C189,49.92,189,49.45,188.7,49.41Z" fill="#663a12"/><path d="M188.88,51.3a25.65,25.65,0,0,0-4-.28c-.3,0-.34.48,0,.48a25.64,25.64,0,0,1,4,.28C189.15,51.82,189.18,51.35,188.88,51.3Z" fill="#663a12"/><path d="M183.6,51.93a4.87,4.87,0,0,0-4.3.82c-.26.17.05.53.31.37a4.35,4.35,0,0,1,3.83-.73A.24.24,0,0,0,183.6,51.93Z" fill="#663a12"/><path d="M184.37,51.82a3.33,3.33,0,0,0-1.79-2.58c-.28-.12-.44.33-.16.45a2.85,2.85,0,0,1,1.49,2.22C184,52.2,184.43,52.12,184.37,51.82Z" fill="#663a12"/><path d="M188.2,53a10.12,10.12,0,0,0-3.06-.83c-.31,0-.34.44,0,.48a9.71,9.71,0,0,1,2.94.8C188.32,53.61,188.48,53.16,188.2,53Z" fill="#663a12"/><path d="M167.77,49.35,170,62.78s-1.67,5-5.27,5.65-6.29-16.06-6.29-16.06" fill="#5b5ea5"/><path d="M157.14,42.16A34.56,34.56,0,0,0,149,43.88c-3.57,1.16-19,23.77-17,26s11.59,6.77,17.32,5.52,19.11-23.55,18.48-26.09c-1.44-5.81-5.93-5.83-5.93-5.83" fill="#686ebc"/><path d="M167.33,36.19s1,8.52-2,10-6.43-1.66-7.42-3.51-2-11.22,3.74-10.59S167.33,36.19,167.33,36.19Z" fill="#ffc388"/><path d="M167.5,30.57c-2.35-.82-5.08-2.59-9.27.18s-5.49,10.46-.48,12.31l.95-2.77a2.8,2.8,0,0,1-.58-2,1.62,1.62,0,0,1,1.94-1.51,4.25,4.25,0,0,0,1.24-1.47c.85-1.68,1.8-.85,3,.64s3.88,1.94,5.2,1S170.49,31.61,167.5,30.57Z" fill="#663a12"/><path d="M151,44.79a61.12,61.12,0,0,0-10.15,5.82c-4.07,3.49-8.15,8.28-4.11,12.35,4.49,4.53,16.57-8.15,19.92-11.87A13.49,13.49,0,0,0,151,44.79Z" fill="#5b5ea5"/><path d="M176.39,51.31a101.46,101.46,0,0,0-8.86,7.09l-4.33,9.32s2.54,3.58,7.27,1.06c3.36-1.79,8.66-8.31,11.2-12.2A9.62,9.62,0,0,0,176.39,51.31Z" fill="#5b5ea5"/><polygon points="155.35 42.15 153.21 36.16 157.72 33.63 161.87 45.44 157.08 47.73 155.35 42.15" fill="#da4131"/><path d="M152.9,46.15l1-3.55s-.34-3.61,0-3.73,1.4,3.28,1.4,3.28,1.93-4.24,2.76-3.82,2,3.67,2.07,4.25S154.83,48,154.83,48" fill="#ffc388"/><path d="M144.5,84.22c-.06-.64-1.06-.64-1,0l4.55,48.52c.06.64,1.06.64,1,0Z" fill="#663a12"/></svg>