<?xml version="1.0" encoding="UTF-8"?>
<svg xmlns="http://www.w3.org/2000/svg" id="Layer_1" viewBox="0 0 100 100"><path d="M50,41.48c-2.3,0-4.17-1.87-4.17-4.17s1.87-4.17,4.17-4.17,4.17,1.87,4.17,4.17-1.87,4.17-4.17,4.17Zm0-6.35c-1.2,0-2.17,.97-2.17,2.17s.97,2.17,2.17,2.17,2.17-.97,2.17-2.17-.97-2.17-2.17-2.17Z"/><path d="M50,54.17c-.55,0-1-.45-1-1v-8.46c0-.55,.45-1,1-1s1,.45,1,1v8.46c0,.55-.45,1-1,1Z"/><path d="M62.87,52.06h-5.47c-.55,0-1-.45-1-1v-12.69c0-.4,.24-.77,.62-.92,.38-.16,.8-.07,1.09,.22l7.58,7.58c.75,.75,1.17,1.76,1.17,2.82,0,2.2-1.79,3.99-3.99,3.99Zm-4.47-2h4.47c1.1,0,1.99-.89,1.99-1.99,0-.53-.21-1.03-.58-1.41l-5.88-5.88v9.28Z"/><path d="M42.6,52.06h-5.47c-2.2,0-3.99-1.79-3.99-3.99,0-1.07,.42-2.07,1.17-2.82l7.58-7.58c.29-.29,.71-.37,1.09-.22,.37,.15,.62,.52,.62,.92v12.69c0,.55-.45,1-1,1Zm-1-11.28l-5.88,5.88c-.38,.38-.58,.88-.58,1.41,0,1.1,.89,1.99,1.99,1.99h4.47v-9.28Z"/><path d="M55.29,54.17h-10.58c-1.72,0-3.12-1.4-3.12-3.12v-16.92c0-6.85,7.58-11.26,7.91-11.44,.31-.18,.69-.18,.99,0,.32,.18,7.91,4.6,7.91,11.44v16.92c0,1.72-1.4,3.12-3.12,3.12Zm-5.29-29.43c-1.58,1.04-6.4,4.62-6.4,9.4v16.92c0,.62,.5,1.12,1.12,1.12h10.58c.62,0,1.12-.5,1.12-1.12v-16.92c0-4.79-4.82-8.35-6.4-9.4Z"/><path d="M55.29,75.33c-.56,0-1.01-.45-1.01-1s.45-1,1.01-1,1,.45,1,1-.45,1-1,1Zm0-4c-.56,0-1.01-.45-1.01-1v-17.15c0-.55,.45-1,1.01-1s1,.45,1,1v17.15c0,.55-.45,1-1,1Z"/><path d="M44.71,75.33c-.55,0-1-.45-1-1s.45-1,1-1,1,.45,1,1-.45,1-1,1Zm0-4c-.55,0-1-.45-1-1v-17.15c0-.55,.45-1,1-1s1,.45,1,1v17.15c0,.55-.45,1-1,1Z"/><path d="M50,71.09c-.55,0-1-.45-1-1s.45-1,1-1,1,.45,1,1-.45,1-1,1Zm0-4c-.55,0-1-.45-1-1v-8.69c0-.55,.45-1,1-1s1,.45,1,1v8.69c0,.55-.45,1-1,1Z"/><path d="M67.98,77.44c-.55,0-1-.45-1-1,0-2.36-1.92-4.29-4.29-4.29h-1.06c-.55,0-1-.45-1-1s.45-1,1-1h1.06c3.47,0,6.29,2.82,6.29,6.29,0,.55-.45,1-1,1Z"/><path d="M61.63,73.21c-.55,0-1-.45-1-1v-1.06c0-2.36-1.92-4.29-4.29-4.29h-1.06c-.55,0-1-.45-1-1s.45-1,1-1h1.06c3.47,0,6.29,2.82,6.29,6.29v1.06c0,.55-.45,1-1,1Z"/><path d="M32.02,77.44c-.55,0-1-.45-1-1,0-3.47,2.82-6.29,6.29-6.29h1.06c.55,0,1,.45,1,1s-.45,1-1,1h-1.06c-2.36,0-4.29,1.92-4.29,4.29,0,.55-.45,1-1,1Z"/><path d="M38.37,73.21c-.55,0-1-.45-1-1v-1.06c0-3.47,2.82-6.29,6.29-6.29h1.06c.55,0,1,.45,1,1s-.45,1-1,1h-1.06c-2.36,0-4.29,1.92-4.29,4.29v1.06c0,.55-.45,1-1,1Z"/><path d="M36.25,66.86c-.55,0-1-.45-1-1v-10.58c0-.55,.45-1,1-1s1,.45,1,1v10.58c0,.55-.45,1-1,1Z"/><path d="M32.02,70.04c-.55,0-1-.45-1-1s.45-1,1-1,1,.45,1,1-.45,1-1,1Zm0-4c-.55,0-1-.45-1-1v-7.63c0-.55,.45-1,1-1s1,.45,1,1v7.63c0,.55-.45,1-1,1Z"/><path d="M27.79,73.21c-.55,0-1-.44-1-.99s.45-1,1-1,1,.44,1,1-.45,.99-1,.99Zm0-4c-.55,0-1-.44-1-1v-24.61h-3.23c-.37,0-.71-.2-.88-.53-.18-.32-.16-.71,.04-1.02l8.47-12.69c.36-.56,1.28-.56,1.66,0l5.22,7.83c.31,.46,.18,1.08-.28,1.39-.44,.29-1.09,.16-1.38-.28l-4.39-6.59-6.6,9.89h2.37c.26,0,.52,.11,.71,.29,.18,.19,.29,.45,.29,.71v25.6h0c0,.57-.45,1.01-1,1.01Z"/><path d="M63.75,66.86c-.55,0-1-.45-1-1v-10.58c0-.55,.45-1,1-1s1,.45,1,1v10.58c0,.55-.45,1-1,1Z"/><path d="M67.98,70.04c-.55,0-1-.45-1-1s.45-1,1-1,1,.45,1,1-.45,1-1,1Zm0-4c-.55,0-1-.45-1-1v-6.57c0-.56,.45-1,1-1s1,.44,1,1v6.57c0,.55-.45,1-1,1Z"/><path d="M72.21,73.21c-.55,0-1-.44-1-.99s.45-1,1-1,1,.44,1,1-.45,.99-1,.99Zm0-4c-.55,0-1-.44-1-1v-25.61c0-.26,.11-.52,.29-.71,.19-.18,.44-.29,.71-.29h2.36l-6.59-9.89-4.39,6.59c-.3,.44-.95,.57-1.39,.28-.46-.31-.58-.93-.28-1.39l5.23-7.83c.37-.56,1.29-.56,1.66,0l8.46,12.69c.21,.31,.22,.7,.05,1.02-.17,.33-.51,.53-.88,.53h-3.23v24.6h0c0,.57-.45,1.01-1,1.01Z"/></svg>