<svg id="Layer_2" data-name="Layer 2" xmlns="http://www.w3.org/2000/svg" xmlns:xlink="http://www.w3.org/1999/xlink" viewBox="0 0 400 300" data-imageid="science-5" imageName="Science discovery" class="illustrations_image" style="width: 310px;"><defs><linearGradient id="linear-gradient" x1="218.29" y1="248.53" x2="264.54" y2="211" gradientUnits="userSpaceOnUse"><stop offset="0.01" stop-color="#39b54a" stop-opacity="0"/><stop offset="0.99" stop-color="#009245"/></linearGradient><linearGradient id="linear-gradient-2" x1="134.3" y1="231.75" x2="190.35" y2="186.25" xlink:href="#linear-gradient"/><linearGradient id="linear-gradient-3" x1="335.23" y1="193.85" x2="356.89" y2="178.85" xlink:href="#linear-gradient"/></defs><title>PP</title><path d="M194.06,284.3,14.34,178.08c-5.72-3.21-10.63-8.49-5.05-11.94l180.37-104c2.71-1.68,6.82-2.78,9.57-1.18L387.88,170.5c5.72,3.32,6.75,12.6,1,15.93L217.75,284.13A23.9,23.9,0,0,1,194.06,284.3Z" fill="#96c168"/><path d="M218.56,261.38c11.49-7.07,23.65-13,35.46-19.52,9.55-5.25,25.21-16.35,34.33-22.3-1.53-7.37-13.39-8.47-21.93-10.23l-.44-.09-6.84-.54a29.52,29.52,0,0,0-3.59.35l-66.9,35.67c8.44,5.93,18,9.93,27,15Z" opacity="0.41" fill="url(#linear-gradient)"/><path d="M194.12,173.59l-.57-.11-8.94-.71a38.59,38.59,0,0,0-4.69.45L92.47,219.84c11,7.75,23.58,13,35.33,19.63,11,6.2,17.41,10,28.17,16.57,14.33-12.32,35-24.14,49.55-36.26C222.46,205.68,215.71,178,194.12,173.59Z" opacity="0.41" fill="url(#linear-gradient-2)"/><path d="M213.5,70.08l-14-9s-.89,1.56,2.28,3.49c1.91,1.17,1.57,1.6,1.57,1.6a17.8,17.8,0,0,0-.59,5.21c.2,2.36,4.13,2.95,5.31,3.34s6.09,1.18,6.09,1.18" fill="#ffb087"/><path d="M251.17,59.74s-11,14.16-13.43,15.18-23.23-7.59-23.23-7.59S210.4,78,211.43,79s27.83,11.9,34.93,9.24S261,72.45,261,72.45,265.48,58.92,251.17,59.74Z" fill="#ced7d8"/><path d="M256.1,193.37s1.57,8,.51,9.86-4.65,7.38-6.56,8.46-4.15,1.06-3.6,3.55,6.25,1.64,8.89,1.36,5.71-6,7.66-6.14.61,6.29,1.7,5.8,3.56-1,3.69-1.46-3.46-18.3-3.46-18.3" fill="#ffb087"/><path d="M265.72,200.42c-5.83,1-9.3,14.76-15.58,11.21l-.09.06c-1.91,1.08-4.15,1.06-3.6,3.55s6.25,1.64,8.89,1.36,5.71-6,7.66-6.14.61,6.29,1.7,5.8,3.56-1,3.69-1.46S266.77,205.71,265.72,200.42Z" fill="#3f2a29"/><path d="M276.06,198.12s1.57,8,.51,9.86-4.65,7.38-6.56,8.46-4.15,1.06-3.6,3.55,6.25,1.64,8.89,1.36,5.71-6,7.66-6.14.61,6.29,1.7,5.8,3.56-1,3.69-1.46-3.46-18.3-3.46-18.3" fill="#ffb087"/><path d="M285.68,205.17c-5.83,1-9.3,14.76-15.58,11.21l-.09.06c-1.91,1.08-4.15,1.06-3.6,3.55s6.25,1.64,8.89,1.36,5.71-6,7.66-6.14.61,6.29,1.7,5.8,3.56-1,3.69-1.46S286.73,210.46,285.68,205.17Z" fill="#3f2a29"/><path d="M268.49,196.33c1.92-15.24,4.48-98.4,4.48-98.4l-22.75-.5L253,99.08s-2,75.08.35,97.39C257.52,198.39,264.09,197.63,268.49,196.33Z" fill="#ffe66d" class="target-color"/><path d="M268.49,196.33c1.92-15.24,4.48-98.4,4.48-98.4l-22.75-.5L253,99.08s-2,75.08.35,97.39C257.52,198.39,264.09,197.63,268.49,196.33Z" fill="#06577a" opacity="0.32"/><path d="M287.49,201.63c.64-17.25-4.56-98.74-4.56-98.74l-22.72,1.18,2.92,1.43s4.22,71.76,8.2,96.08C275.45,203.66,283,203.11,287.49,201.63Z" fill="#ffe66d" class="target-color"/><path d="M265.29,38.89a4.3,4.3,0,0,0-6.76-.25,4.18,4.18,0,0,0-2.15,3.28c-.6,7.73-4.28,15.43-1.53,23.18,1.92,5.42,7,7.53,12.39,6.33C284,67.73,270.9,46.87,265.29,38.89Z" fill="#842626"/><path d="M279,87.64c0-.08,0-.15,0-.2-.52-6.89,1.6-17.56-2.28-23.62-2-3.09-5.58-4.91-8.95-6.08a35.07,35.07,0,0,0-5.94-1.47,10.68,10.68,0,0,0-9.38,3c-1.93,1.88-2.2,5.13-2.18,7.67,0,5.08-.24,9.09.17,14.15.38,4.64.36,9.31.87,13.93a45.78,45.78,0,0,1,.49,5.8c0,.77,3.89,2,4.71,2.44,9.8,5.83,20.07,3.14,25,1.19C281.83,104.28,279.23,90,279,87.64Z" fill="#e96968"/><path d="M261.77,56.27l-4.38,16.48,2.19,58.06s11.29,4.22,17.71,3.62,6.77-4.32,6.77-4.32-2.76-57.71-3.76-61.35-8.23-9.05-8.23-9.05" fill="#e4e9ea"/><path d="M253.84,71.76c.39-.89.86-14.71.86-14.71s-3.57,1.53-4.5,2.65,0,48.95,0,48.95-.25,19.13,0,19.6,3.56,2.48,4.5,1.89S253.84,71.76,253.84,71.76Z" fill="#e4e9ea"/><path d="M249.56,46.12c.08,1,1.62,14.13,8.92,13.57,8.1-.62,6.59-18.92-.5-20S249.4,44.13,249.56,46.12Z" fill="#ffb087"/><path d="M267.38,37.65c-3.31-3.07-7.6-4.88-12.29-3.37-5.13,1.65-8,7.4-7.32,12.56,0,0,9,.27,11.18-.45,0,0,.89,12.34,0,16-.58,2.36,3.74,2.87,5.18,3,3,.27,11.18.05,11.45-4.36C276.08,52.81,273.66,43.46,267.38,37.65Z" fill="#842626"/><path d="M336.93,200.59s28.46-16.41,28.63-16.67l-10.76-11.15L322,191.93Z" opacity="0.41" fill="url(#linear-gradient-3)"/><path d="M348.82,163.32s-2.24,18,7.94,21.44,15.63-5.57,15.79-21.44" fill="#ffe66d" class="target-color"/><ellipse cx="360.69" cy="163.32" rx="11.87" ry="6.4" fill="#06577a"/><path d="M360.69,163.32s0-24.88-12.71-35c0,0-6.78,4-5.08,10.24s9,1.59,10.26,4.84-2.5,4.2.06,7.52S360.69,156.91,360.69,163.32Z" fill="#99ce34"/><path d="M363.27,161.21s-1-28.85,5.37-37.41,10.61,3.2,7.73,8.44-7.91,3.93-6.12,8.44,4.94,6.87,1.4,8.81S363,157.55,363.27,161.21Z" fill="#99ce34"/><path d="M215.56,196.92c0-2.15,0-4.59-.07-7-15.24,8.32-35.29,8.87-51.34,1.56v6.14A80.15,80.15,0,0,0,190.24,202,61.46,61.46,0,0,0,215.56,196.92Z" fill="#3f2a29"/><path d="M164.15,202.71v1.67a3.79,3.79,0,0,0,1.1,2.61c2.26,2.39,8.56,6.91,24,6.91,20.94,0,25.06-8.68,26-10.53a5,5,0,0,0,.24-1.36C199.73,207.89,180.19,208.17,164.15,202.71Z" fill="#3f2a29"/><path d="M215.35,184.23c-.09-3.22-.19-5.55-.19-5.55s-.89-2.29-5.19-2.82-42.6,0-42.6,0c-.72.31-3.22.17-3.22,4.91v5.34C179.82,194.73,200.74,193.91,215.35,184.23Z" fill="#3f2a29"/><path d="M215.49,189.94c0-2-.09-4-.14-5.71-14.61,9.68-35.54,10.5-51.2,1.88v5.39C180.2,198.81,200.25,198.26,215.49,189.94Z" fill="#6b5151"/><path d="M190.24,202a80.15,80.15,0,0,1-26.09-4.39v5.07c16,5.46,35.58,5.17,51.25-.71.1-1.18.15-3,.16-5.08A61.46,61.46,0,0,1,190.24,202Z" fill="#6b5151"/><path d="M189.45,188.92s-19-.83-22.24-12.24-1.15-19.22-9.4-32.1-13.31-23.72-13.42-36.24,7.92-40.82,42.08-41.66,49.3,24.07,48.84,40.75-11,26.81-15.59,39.06-6,26.39-6.88,28.71S209.17,186.81,189.45,188.92Z" fill="#ffe66d" class="target-color"/><path d="M215.5,103a11.9,11.9,0,0,0-4.12-7.24,10.18,10.18,0,0,0-12.59-.15,13.07,13.07,0,0,0-7.85-3.34,12,12,0,0,0-9.22,3.38,9.72,9.72,0,0,0-2-.91,9.85,9.85,0,0,0-9,1.78c-6.57,4.91-7.67,13.42-6.41,20.66,1.66,9.54,5.13,18.85,8.25,28,.51,1.52,6.72,17.48,6.51,17.58a4.83,4.83,0,0,0-.61.35s-3,1.68-3.53,4.31a24.15,24.15,0,0,0,0,6.34s1.68,5.26,13.61,5.42S203,173.35,203,173.35v-5.88s-.39-2.46-3.73-4.3c-.36-.2,5.11-13.47,5.58-14.77,1.82-5,3.55-10.11,5.12-15.22,1.86-6.06,4-12.09,5-18.32C215.64,111.22,216.25,106.9,215.5,103Zm-14.9.43c.26,2.07-.36,5-2.86,5.76-2.73.81-2.16-3.79-1.78-5.12a15.62,15.62,0,0,1,2.77-5.32A10.47,10.47,0,0,1,200.61,103.44ZM182,98.51a9.1,9.1,0,0,1,2,9.41,6,6,0,0,1-1.62,2.39c-1.16,1-2.13.84-2.88-.41-1.12-1.86-.74-4.22-.15-6.17A16.4,16.4,0,0,1,182,98.51Zm15.17,63.74a20.73,20.73,0,0,0-5.06-1,31.37,31.37,0,0,0-10.83.72c-.62.17-8.28-23-8.94-25.14q-2-6.44-3.73-12.94c-1.91-7.17-3.71-15.24.34-22.09,2.18-3.69,6.72-7.08,11.32-4.62l0,0a16.45,16.45,0,0,0-2.05,3.31,14,14,0,0,0-1.53,7.82c.29,1.95,1.63,4.73,4.14,4.82s4.43-2.45,5.21-4.32a10.85,10.85,0,0,0,.05-7.86,10.68,10.68,0,0,0-2.67-4.08,10,10,0,0,1,3.39-2.07,10.59,10.59,0,0,1,10.46,2.23,17.2,17.2,0,0,0-3.4,6.18c-.67,2.19-1,5.7,1,7.43,1.86,1.58,4.74.26,6.13-1.21,2-2.08,2.19-5,1.56-7.57a12.29,12.29,0,0,0-2.3-4.71,7.63,7.63,0,0,1,9.79.27c4.73,4.26,3.35,12.36,2.19,17.73C208.8,131.31,203.14,146.83,197.14,162.25Z" fill="#3f2a29"/><path d="M164,78.63a25.83,25.83,0,0,0-7.65,9.54,2.68,2.68,0,0,0,1.05,3.7c1.22.68,3.4.37,4-1a22.35,22.35,0,0,1,6.73-8.45C171,80.2,166.82,76.39,164,78.63Z" fill="#fff"/><path d="M156.62,94.64a2.71,2.71,0,1,0,0,5.41A2.71,2.71,0,1,0,156.62,94.64Z" fill="#fff"/><path d="M81,113.64c.1.21.62,2.15,1,1.74s2.56.52,2.56.52l6-7.65-.8-2.5H84.4" fill="#ffe66d" class="target-color"/><path d="M110.06,80.69l.57-2,6.32-3.45V64.48c0-.21-6.12,3.59-6.12,3.59l-.29-.6a14.45,14.45,0,0,0-1.86-4.66l4.45-8.22-5.66-4.3-4.23,8.48,0,0a9.62,9.62,0,0,0-4.67.08V50.74l-8.09,4.49v8.51a35.79,35.79,0,0,0-4.32,5l-4.88-3.12L75.76,76.07l4.37,3.47-.37,1.76A48,48,0,0,0,78.4,87l-6.49,3.57v10.73l6.18-3.68a13.9,13.9,0,0,0,2,5.5l-4.63,7.86,5.87,4.44,4.12-8.09h5.13v8.09l7.72-4.7v-7.95A31.89,31.89,0,0,0,102.95,97l4.64,3.17,5.6-10.71L108.54,86l.46-1.61C109.41,83.14,109.77,81.9,110.06,80.69Z" fill="#ffe66d" class="target-color"/><polyline points="124.72 68.97 117.57 64.64 115.78 67.28 118.55 73.07" fill="#ffe66d" class="target-color"/><polyline points="115.36 104.62 110.07 102.42 110.07 99.22" fill="#ffe66d" class="target-color"/><polygon points="98.34 119.87 90.57 115.38 92.54 109.5 99.54 111.56 98.34 119.87" fill="#ffe66d" class="target-color"/><polygon points="107.48 50.3 115.26 54.78 110.99 63.28 106.33 63.36 105.25 54.78 107.48 50.3" fill="#ffe66d" class="target-color"/><ellipse cx="102.72" cy="87.4" rx="6.03" ry="3.5" transform="translate(-16.19 151.03) rotate(-68.55)" fill="#ffe66d" class="target-color"/><polygon points="90.47 55.23 98.24 59.71 106.33 55.22 98.55 50.74 90.47 55.23" fill="#ffe66d" class="target-color"/><polygon points="89.04 70.08 81.27 65.59 75.76 76.07 83.53 80.56 89.04 70.08" fill="#ffe66d" class="target-color"/><polygon points="75.45 110.94 83.23 115.43 89.09 119.87 81.32 115.38 75.45 110.94" fill="#ffe66d" class="target-color"/><path d="M81,113.64c.1.21.62,2.15,1,1.74s2.56.52,2.56.52l6-7.65-.8-2.5H84.4" fill="#053855" opacity="0.44"/><path d="M110.06,80.69l.57-2,6.32-3.45V64.48c0-.21-6.12,3.59-6.12,3.59l-.29-.6a14.45,14.45,0,0,0-1.86-4.66l4.45-8.22-5.66-4.3-4.23,8.48,0,0a9.62,9.62,0,0,0-4.67.08V50.74l-8.09,4.49v8.51a35.79,35.79,0,0,0-4.32,5l-4.88-3.12L75.76,76.07l4.37,3.47-.37,1.76A48,48,0,0,0,78.4,87l-6.49,3.57v10.73l6.18-3.68a13.9,13.9,0,0,0,2,5.5l-4.63,7.86,5.87,4.44,4.12-8.09h5.13v8.09l7.72-4.7v-7.95A31.89,31.89,0,0,0,102.95,97l4.64,3.17,5.6-10.71L108.54,86l.46-1.61C109.41,83.14,109.77,81.9,110.06,80.69Z" fill="#ffe66d" class="target-color"/><polyline points="124.72 68.97 117.57 64.64 115.78 67.28 118.55 73.07" fill="#053855" opacity="0.44"/><polyline points="115.36 104.62 110.07 102.42 110.07 99.22" fill="#ffe66d" class="target-color"/><polygon points="98.34 119.87 90.57 115.38 92.54 109.5 99.54 111.56 98.34 119.87" fill="#ffe66d" class="target-color"/><polygon points="107.48 50.3 115.26 54.78 110.99 63.28 106.33 63.36 105.25 54.78 107.48 50.3" fill="#ffe66d" class="target-color"/><ellipse cx="102.72" cy="87.4" rx="6.03" ry="3.5" transform="translate(-16.19 151.03) rotate(-68.55)" fill="#ffe66d" class="target-color"/><polygon points="89.04 70.08 81.27 65.59 75.76 76.07 83.53 80.56 89.04 70.08" fill="#ffe66d" class="target-color"/><polygon points="75.45 110.94 83.23 115.43 89.09 119.87 81.32 115.38 75.45 110.94" fill="#ffe66d" class="target-color"/><path d="M110.06,80.69l.57-2,6.32-3.45V64.48c0-.21-6.12,3.59-6.12,3.59l-.29-.6a14.45,14.45,0,0,0-1.86-4.66l4.45-8.22-5.66-4.3-4.23,8.48,0,0a9.62,9.62,0,0,0-4.67.08V50.74l-8.09,4.49v8.51a35.79,35.79,0,0,0-4.32,5l-4.88-3.12L75.76,76.07l4.37,3.47-.37,1.76A48,48,0,0,0,78.4,87l-6.49,3.57v10.73l6.18-3.68a13.9,13.9,0,0,0,2,5.5l-4.63,7.86,5.87,4.44,4.12-8.09h5.13v8.09l7.72-4.7v-7.95A31.89,31.89,0,0,0,102.95,97l4.64,3.17,5.6-10.71L108.54,86l.46-1.61C109.41,83.14,109.77,81.9,110.06,80.69Z" fill="#053855" opacity="0.44"/><polyline points="115.36 104.62 110.07 102.42 110.07 99.22" fill="#053855" opacity="0.1"/><polygon points="98.34 119.87 90.57 115.38 92.54 109.5 99.54 111.56 98.34 119.87" fill="#053855" opacity="0.1"/><ellipse cx="102.72" cy="87.4" rx="6.03" ry="3.5" transform="translate(-16.19 151.03) rotate(-68.55)" fill="#053855" opacity="0.1"/><polygon points="89.04 70.08 81.27 65.59 75.76 76.07 83.53 80.56 89.04 70.08" fill="#053855" opacity="0.1"/><polygon points="75.45 110.94 83.23 115.43 89.09 119.87 81.32 115.38 75.45 110.94" fill="#053855" opacity="0.1"/><polyline points="115.36 104.62 110.07 102.42 110.07 99.22" fill="#053855" opacity="0.1"/><polygon points="98.34 119.87 90.57 115.38 92.54 109.5 99.54 111.56 98.34 119.87" fill="#053855" opacity="0.44"/><path d="M117.83,85.17l.57-2,6.32-3.45V69c0-.21-6.12,3.59-6.12,3.59l-.29-.6a14.45,14.45,0,0,0-1.86-4.66l4.45-8.22-5.66-4.3L111,63.26l0,0a9.62,9.62,0,0,0-4.67.08V55.22l-8.09,4.49v8.51a35.79,35.79,0,0,0-4.32,5L89,70.07,83.53,80.56,87.9,84l-.37,1.76a48,48,0,0,0-1.35,5.66L79.69,95v10.73l6.18-3.68a13.9,13.9,0,0,0,2,5.5l-4.63,7.86,5.87,4.44,4.12-8.09h5.13v8.09l7.72-4.7v-7.95a31.89,31.89,0,0,0,4.66-5.77l4.64,3.17L121,93.91l-4.65-3.44.46-1.61C117.19,87.62,117.54,86.39,117.83,85.17Z" fill="#ffe66d" class="target-color"/><ellipse cx="102.72" cy="87.4" rx="6.03" ry="3.5" transform="translate(-16.19 151.03) rotate(-68.55)" fill="#053855" opacity="0.44"/><polygon points="75.45 110.94 83.23 115.43 89.09 119.87 81.32 115.38 75.45 110.94" fill="#053855" opacity="0.44"/><polygon points="90.47 55.23 98.24 59.71 106.33 55.22 98.55 50.74 90.47 55.23" fill="#ffe66d" class="target-color"/><polygon points="90.47 55.2 98.22 59.71 106.33 55.25 98.57 50.74 90.47 55.2" fill="#053855" opacity="0.44"/><polygon points="71.91 90.54 79.69 95.02 79.69 105.75 71.91 101.27 71.91 90.54" fill="#ffe66d" class="target-color"/><polygon points="71.91 90.54 79.69 95.02 79.69 105.75 71.91 101.27 71.91 90.54" fill="#053855" opacity="0.44"/><path d="M55.11,186.42c.09.18.55,1.91.91,1.55s2.28.46,2.28.46l5.35-6.8-.71-2.22H58.13" fill="#ffe66d" class="target-color"/><path d="M80.94,157.12l.5-1.77,5.62-3.06v-9.58c0-.19-5.44,3.2-5.44,3.2l-.26-.53a12.85,12.85,0,0,0-1.65-4.14l4-7.31-5-3.82-3.76,7.54,0,0a8.56,8.56,0,0,0-4.15.07v-7.24l-7.19,4V142a31.83,31.83,0,0,0-3.84,4.42l-4.34-2.77L50.44,153l3.88,3.09L54,157.67a42.73,42.73,0,0,0-1.2,5L47,165.88v9.54l5.49-3.28A12.36,12.36,0,0,0,54.29,177l-4.12,7L55.39,188l3.67-7.19h4.56V188l6.86-4.18v-7.07a28.36,28.36,0,0,0,4.14-5.13l4.13,2.82,5-9.52-4.14-3.06.41-1.43C80.37,159.3,80.68,158.2,80.94,157.12Z" fill="#ffe66d" class="target-color"/><polyline points="93.98 146.7 87.62 142.85 86.03 145.2 88.5 150.35" fill="#ffe66d" class="target-color"/><polyline points="85.66 178.4 80.96 176.45 80.96 173.6" fill="#ffe66d" class="target-color"/><polygon points="70.53 191.96 63.61 187.97 65.37 182.75 71.59 184.57 70.53 191.96" fill="#ffe66d" class="target-color"/><polygon points="78.66 130.09 85.57 134.08 81.77 141.64 77.63 141.72 76.67 134.08 78.66 130.09" fill="#ffe66d" class="target-color"/><ellipse cx="74.42" cy="163.09" rx="5.36" ry="3.12" transform="translate(-104.59 172.7) rotate(-68.55)" fill="#ffe66d" class="target-color"/><polygon points="63.52 134.48 70.43 138.47 77.63 134.47 70.71 130.49 63.52 134.48" fill="#ffe66d" class="target-color"/><polygon points="62.25 147.68 55.34 143.7 50.44 153.02 57.36 157 62.25 147.68" fill="#ffe66d" class="target-color"/><polygon points="50.17 184.03 57.08 188.01 62.3 191.96 55.39 187.97 50.17 184.03" fill="#ffe66d" class="target-color"/><path d="M55.11,186.42c.09.18.55,1.91.91,1.55s2.28.46,2.28.46l5.35-6.8-.71-2.22H58.13" fill="#053855" opacity="0.44"/><path d="M80.94,157.12l.5-1.77,5.62-3.06v-9.58c0-.19-5.44,3.2-5.44,3.2l-.26-.53a12.85,12.85,0,0,0-1.65-4.14l4-7.31-5-3.82-3.76,7.54,0,0a8.56,8.56,0,0,0-4.15.07v-7.24l-7.19,4V142a31.83,31.83,0,0,0-3.84,4.42l-4.34-2.77L50.44,153l3.88,3.09L54,157.67a42.73,42.73,0,0,0-1.2,5L47,165.88v9.54l5.49-3.28A12.36,12.36,0,0,0,54.29,177l-4.12,7L55.39,188l3.67-7.19h4.56V188l6.86-4.18v-7.07a28.36,28.36,0,0,0,4.14-5.13l4.13,2.82,5-9.52-4.14-3.06.41-1.43C80.37,159.3,80.68,158.2,80.94,157.12Z" fill="#ffe66d" class="target-color"/><polyline points="93.98 146.7 87.62 142.85 86.03 145.2 88.5 150.35" fill="#053855" opacity="0.44"/><polyline points="85.66 178.4 80.96 176.45 80.96 173.6" fill="#ffe66d" class="target-color"/><polygon points="70.53 191.96 63.61 187.97 65.37 182.75 71.59 184.57 70.53 191.96" fill="#ffe66d" class="target-color"/><polygon points="78.66 130.09 85.57 134.08 81.77 141.64 77.63 141.72 76.67 134.08 78.66 130.09" fill="#ffe66d" class="target-color"/><ellipse cx="74.42" cy="163.09" rx="5.36" ry="3.12" transform="translate(-104.59 172.7) rotate(-68.55)" fill="#ffe66d" class="target-color"/><polygon points="62.25 147.68 55.34 143.7 50.44 153.02 57.36 157 62.25 147.68" fill="#ffe66d" class="target-color"/><polygon points="50.17 184.03 57.08 188.01 62.3 191.96 55.39 187.97 50.17 184.03" fill="#ffe66d" class="target-color"/><path d="M80.94,157.12l.5-1.77,5.62-3.06v-9.58c0-.19-5.44,3.2-5.44,3.2l-.26-.53a12.85,12.85,0,0,0-1.65-4.14l4-7.31-5-3.82-3.76,7.54,0,0a8.56,8.56,0,0,0-4.15.07v-7.24l-7.19,4V142a31.83,31.83,0,0,0-3.84,4.42l-4.34-2.77L50.44,153l3.88,3.09L54,157.67a42.73,42.73,0,0,0-1.2,5L47,165.88v9.54l5.49-3.28A12.36,12.36,0,0,0,54.29,177l-4.12,7L55.39,188l3.67-7.19h4.56V188l6.86-4.18v-7.07a28.36,28.36,0,0,0,4.14-5.13l4.13,2.82,5-9.52-4.14-3.06.41-1.43C80.37,159.3,80.68,158.2,80.94,157.12Z" fill="#053855" opacity="0.44"/><polyline points="85.66 178.4 80.96 176.45 80.96 173.6" fill="#053855" opacity="0.1"/><polygon points="70.53 191.96 63.61 187.97 65.37 182.75 71.59 184.57 70.53 191.96" fill="#053855" opacity="0.1"/><ellipse cx="74.42" cy="163.09" rx="5.36" ry="3.12" transform="translate(-104.59 172.7) rotate(-68.55)" fill="#053855" opacity="0.1"/><polygon points="62.25 147.68 55.34 143.7 50.44 153.02 57.36 157 62.25 147.68" fill="#053855" opacity="0.1"/><polygon points="50.17 184.03 57.08 188.01 62.3 191.96 55.39 187.97 50.17 184.03" fill="#053855" opacity="0.1"/><polyline points="85.66 178.4 80.96 176.45 80.96 173.6" fill="#053855" opacity="0.1"/><polygon points="70.53 191.96 63.61 187.97 65.37 182.75 71.59 184.57 70.53 191.96" fill="#053855" opacity="0.44"/><path d="M87.86,161.11l.5-1.77L94,156.28V146.7c0-.19-5.44,3.2-5.44,3.2l-.26-.53a12.85,12.85,0,0,0-1.65-4.14l4-7.31-5-3.82-3.76,7.54,0,0a8.56,8.56,0,0,0-4.15.07v-7.24l-7.19,4V146a31.83,31.83,0,0,0-3.84,4.42l-4.34-2.77L57.36,157l3.88,3.09-.33,1.56a42.73,42.73,0,0,0-1.2,5l-5.77,3.18v9.54l5.49-3.28A12.36,12.36,0,0,0,61.2,181l-4.12,7L62.3,192,66,184.77h4.56V192l6.86-4.18v-7.07a28.36,28.36,0,0,0,4.14-5.13l4.13,2.82,5-9.52-4.14-3.06.41-1.43C87.28,163.29,87.6,162.19,87.86,161.11Z" fill="#ffe66d" class="target-color"/><ellipse cx="74.42" cy="163.09" rx="5.36" ry="3.12" transform="translate(-104.59 172.7) rotate(-68.55)" fill="#053855" opacity="0.44"/><polygon points="50.17 184.03 57.08 188.01 62.3 191.96 55.39 187.97 50.17 184.03" fill="#053855" opacity="0.44"/><polygon points="63.52 134.48 70.43 138.47 77.63 134.47 70.71 130.49 63.52 134.48" fill="#ffe66d" class="target-color"/><polygon points="63.52 134.45 70.42 138.46 77.63 134.5 70.73 130.49 63.52 134.45" fill="#053855" opacity="0.44"/><polygon points="47.02 165.88 53.94 169.87 53.94 179.41 47.02 175.42 47.02 165.88" fill="#ffe66d" class="target-color"/><polygon points="47.02 165.88 53.94 169.87 53.94 179.41 47.02 175.42 47.02 165.88" fill="#053855" opacity="0.44"/><path d="M225.61,78.16s-6.81-6.08-7.6-6.39-.17,3.25,1,4c0,0-5.22-.48-7.17,0s-1.46,6-.66,6.66A26.23,26.23,0,0,0,216.85,85c.57,0,8.76-.57,8.76-.57l6.72,1.33,1.93-5.42Z" fill="#ffb087"/><path d="M265.82,67s-11,14.16-13.43,15.18-23.23-7.59-23.23-7.59-4.1,10.64-3.08,11.68S253.91,98.16,261,95.5s14.62-15.79,14.62-15.79S280.13,66.18,265.82,67Z" fill="#e4e9ea"/></svg>