<?xml version="1.0" encoding="utf-8"?>
<!-- Generator: Adobe Illustrator 24.3.0, SVG Export Plug-In . SVG Version: 6.00 Build 0)  -->
<svg version="1.1" id="logo-54" xmlns="http://www.w3.org/2000/svg" xmlns:xlink="http://www.w3.org/1999/xlink" x="0px" y="0px"
	 viewBox="0 0 170 41" style="enable-background:new 0 0 170 41;" xml:space="preserve">
<style type="text/css">
	.st0{fill:#FFFFFF;}
	.st1{fill-rule:evenodd;clip-rule:evenodd;fill:#FFFFFF;}
</style>
<path class="st0" d="M51.9,28.1h12v-3.6h-7.7V11h-4.2V28.1z"/>
<path class="st0" d="M70.9,25.7c-1.7,0-2.6-1.5-2.6-3.7s0.9-3.7,2.6-3.7c1.7,0,2.6,1.5,2.6,3.7S72.6,25.7,70.9,25.7z M70.9,28.5
	c4,0,6.6-2.8,6.6-6.5s-2.6-6.5-6.6-6.5c-3.9,0-6.6,2.8-6.6,6.5S67,28.5,70.9,28.5z"/>
<path class="st0" d="M84.3,32.4c1.8,0,3.4-0.4,4.5-1.4c1-0.9,1.6-2.2,1.6-4.1V15.9h-3.7v1.3h0c-0.7-1-1.8-1.7-3.5-1.7
	c-3,0-5.2,2.5-5.2,6.1c0,3.8,2.6,5.8,5.3,5.8c1.5,0,2.4-0.6,3.1-1.4h0.1v1.2c0,1.5-0.7,2.4-2.4,2.4c-1.3,0-1.9-0.6-2.2-1.2h-3.8
	C78.7,31,80.9,32.4,84.3,32.4z M84.3,24.6c-1.5,0-2.4-1.2-2.4-3c0-1.9,1-3.1,2.4-3.1c1.6,0,2.5,1.4,2.5,3
	C86.8,23.2,86,24.6,84.3,24.6z"/>
<path class="st0" d="M98.2,25.7c-1.7,0-2.6-1.5-2.6-3.7s0.9-3.7,2.6-3.7s2.6,1.5,2.6,3.7S99.9,25.7,98.2,25.7z M98.2,28.5
	c4,0,6.6-2.8,6.6-6.5s-2.6-6.5-6.6-6.5c-3.9,0-6.6,2.8-6.6,6.5S94.3,28.5,98.2,28.5z"/>
<path class="st0" d="M105.9,28.1h3.9V15.9h-3.9V28.1z M105.9,14.1h3.9V11h-3.9V14.1z"/>
<path class="st0" d="M111.5,32.2h3.9v-5.3h0c0.8,1,1.9,1.7,3.5,1.7c3.2,0,5.4-2.5,5.4-6.5c0-3.7-2-6.5-5.3-6.5
	c-1.7,0-2.9,0.7-3.7,1.8h-0.1v-1.5h-3.7V32.2z M117.9,25.5c-1.7,0-2.6-1.4-2.6-3.4s0.9-3.5,2.6-3.5c1.7,0,2.5,1.4,2.5,3.5
	C120.3,24.2,119.4,25.5,117.9,25.5z"/>
<path class="st0" d="M130.7,28.5c3.2,0,5.6-1.4,5.6-4.1c0-3.1-2.5-3.7-4.7-4.1c-1.6-0.3-3-0.4-3-1.3c0-0.8,0.7-1.1,1.7-1.1
	c1.1,0,1.8,0.3,2,1.4h3.6c-0.2-2.4-2.1-3.9-5.5-3.9c-2.9,0-5.3,1.3-5.3,3.9c0,2.9,2.3,3.5,4.4,3.8c1.6,0.3,3.1,0.4,3.1,1.5
	c0,0.8-0.7,1.2-1.9,1.2c-1.3,0-2.1-0.6-2.3-1.8h-3.7C124.8,26.9,127.1,28.5,130.7,28.5z"/>
<path class="st0" d="M141.6,28.5c1.7,0,2.8-0.7,3.7-1.9h0.1v1.5h3.7V15.9h-3.9v6.9c0,1.5-0.8,2.5-2.2,2.5c-1.2,0-1.8-0.7-1.8-2.1
	v-7.2h-3.9v8.1C137.2,26.6,138.7,28.5,141.6,28.5z"/>
<path class="st0" d="M150.8,28.1h3.9v-6.9c0-1.5,0.7-2.5,1.9-2.5c1.2,0,1.7,0.8,1.7,2.1v7.3h3.9v-6.9c0-1.5,0.7-2.5,1.9-2.5
	c1.2,0,1.7,0.8,1.7,2.1v7.3h3.9v-8c0-2.8-1.4-4.7-4.2-4.7c-1.6,0-2.9,0.7-3.9,2.2h0c-0.6-1.3-1.8-2.2-3.5-2.2c-1.8,0-3,0.8-3.7,2.1
	h-0.1v-1.8h-3.7V28.1z"/>
<path class="st1" d="M20.7,40.1c11,0,20-9,20-20c0-11-9-20-20-20c-11,0-20,9-20,20C0.7,31.2,9.6,40.1,20.7,40.1z M26.9,9.5
	c0.3-1.1-0.7-1.7-1.7-1l-13.3,9.5c-1,0.7-0.9,2.2,0.2,2.2h3.5v0h6.8l-5.6,2l-2.5,8.7c-0.3,1.1,0.7,1.7,1.7,1l13.3-9.5
	c1-0.7,0.9-2.2-0.2-2.2h-5.3L26.9,9.5z"/>
</svg>
